<?xml version="1.0" encoding="UTF-8"?>
<svg version="1.1" xmlns="http://www.w3.org/2000/svg" width="1024" height="1024">
<path d="M0 0 C337.92 0 675.84 0 1024 0 C1024 337.92 1024 675.84 1024 1024 C686.08 1024 348.16 1024 0 1024 C0 686.08 0 348.16 0 0 Z " fill="#2E85E0" transform="translate(0,0)"/>
<path d="M0 0 C337.92 0 675.84 0 1024 0 C1024 337.92 1024 675.84 1024 1024 C686.08 1024 348.16 1024 0 1024 C0 686.08 0 348.16 0 0 Z M200.5625 124.625 C199.76884033 124.88442383 198.97518066 125.14384766 198.1574707 125.41113281 C167.28753047 135.89723964 143.41506234 157.89623815 129.04248047 186.93457031 C124.53540729 196.29985718 121.0358325 205.77612317 119 216 C118.83193161 216.81636661 118.66386322 217.63273322 118.49070185 218.47383821 C116.56585547 229.16354334 116.72420686 239.77312676 116.75276184 250.60049438 C116.75117179 252.78941403 116.74870625 254.97833319 116.74544543 257.16725099 C116.73905387 263.15877246 116.74508333 269.15022597 116.75320971 275.14174294 C116.7598049 281.61395747 116.754834 288.08616463 116.75132751 294.55838013 C116.74651689 305.7720373 116.74975391 316.98567461 116.75797462 328.19932938 C116.76660713 339.9781373 116.77149437 351.75693629 116.77130699 363.53574753 C116.77129935 364.27008373 116.7712917 365.00441993 116.77128382 365.76100874 C116.77124291 368.74253814 116.77117729 371.72406754 116.77107801 374.70559695 C116.77017223 402.67088218 116.78010844 430.63615387 116.79550768 458.60143441 C116.80909981 483.37573039 116.81537023 508.15001673 116.81469727 532.92431641 C116.81465685 534.51204481 116.81461649 536.09977322 116.81457619 537.68750162 C116.81455584 538.47248689 116.81453548 539.25747216 116.81451452 540.06624487 C116.8144137 544.01886226 116.81432312 547.97147966 116.81424427 551.92409706 C116.81422756 552.70410364 116.81421084 553.48411022 116.81419362 554.28775336 C116.81382695 575.04917596 116.81838386 595.81059738 116.82457083 616.57201898 C116.82479111 617.31242958 116.82501138 618.05284018 116.82523832 618.81568747 C116.82612643 621.79231579 116.82701491 624.76894412 116.82792928 627.74557244 C116.83107044 638.03802075 116.83259611 648.3304681 116.83304077 658.62291686 C116.83364241 671.91387894 116.83772387 685.20483313 116.84747223 698.49579187 C116.85204297 704.8919624 116.85515357 711.28812338 116.85387802 717.68429565 C116.82495316 749.11643049 116.82495316 749.11643049 117.27322366 780.5444731 C117.30442554 781.95901163 117.33178927 783.3736425 117.35446588 784.78834338 C117.57976988 797.98806493 119.26034085 811.47586599 123.625 824 C123.87660889 824.7336377 124.12821777 825.46727539 124.38745117 826.22314453 C135.04159636 855.92272471 156.79687069 879.32718773 185 893 C203.90837434 901.65488073 222.57208155 903.59464605 243.16966248 903.50793457 C245.57641875 903.51255145 247.98317219 903.51890962 250.38991982 903.52684355 C255.59328254 903.53999738 260.79649399 903.54091622 265.99985695 903.53065491 C273.73786703 903.5154371 281.47573837 903.52330518 289.21374771 903.53548814 C303.03927289 903.55648734 316.86472387 903.55475099 330.69025601 903.54317249 C342.79020141 903.53308953 354.89011969 903.53049309 366.99006844 903.53526306 C368.19643667 903.53572137 368.19643667 903.53572137 369.42717598 903.53618894 C372.69230904 903.5374344 375.95744209 903.53870802 379.22257512 903.540028 C409.82060544 903.5522501 440.41858865 903.54119245 471.01661169 903.51964041 C498.16808212 903.50066135 525.31947749 903.50235658 552.47094727 903.52148438 C583.01336714 903.54292939 613.55574542 903.55138132 644.09817177 903.53903532 C647.35748644 903.53775256 650.61680111 903.53650119 653.8761158 903.53526306 C655.07980383 903.5347886 655.07980383 903.5347886 656.30780879 903.53430455 C668.39591085 903.5297654 680.48398273 903.5350557 692.57208061 903.54518127 C706.32531897 903.55664458 720.07847188 903.55370328 733.83169966 903.5320583 C741.51745792 903.52035952 749.20303088 903.5194788 756.88878413 903.534643 C762.64311716 903.54473888 768.39726104 903.53369835 774.15156461 903.5147447 C776.46763171 903.51030392 778.78372385 903.51248749 781.09977465 903.52224785 C811.07204687 903.63879489 841.10927119 896.51863256 864 876 C864.83917969 875.27941406 865.67835938 874.55882812 866.54296875 873.81640625 C885.89029276 856.92774369 898.79412147 835.20469901 904 810 C904.16266963 809.24785841 904.32533926 808.49571682 904.49293828 807.72078305 C906.42589013 797.71323107 906.45544517 787.70744834 906.6149292 777.55241394 C906.65266287 775.51450954 906.69060941 773.47660907 906.72875285 771.4387123 C907.13254566 748.56345439 907.15708216 725.68621215 907.16004276 702.80806267 C907.16193619 696.47374863 907.16950184 690.13944047 907.17617798 683.80513 C907.19026957 669.34288906 907.19625753 654.88065075 907.20086992 640.41840414 C907.20322706 633.24777914 907.20683111 626.07715492 907.2105653 618.90653053 C907.22336092 594.27946863 907.23409616 569.65240713 907.2375679 545.02534199 C907.23778952 543.49029367 907.2380113 541.95524534 907.23823325 540.42019702 C907.23845388 538.88195811 907.23867436 537.34371921 907.2388947 535.8054803 C907.2393372 532.720662 907.23978433 529.63584369 907.24023438 526.55102539 C907.24034377 525.7862147 907.24045316 525.021404 907.24056586 524.23341723 C907.24420796 499.35568542 907.26019173 474.47798253 907.28342474 449.60026181 C907.30804884 423.18418915 907.32174134 396.76813304 907.32293582 370.35204858 C907.32310724 367.45153343 907.32332265 364.5510183 907.32357025 361.65050316 C907.3236539 360.57952641 907.3236539 360.57952641 907.32373925 359.48691377 C907.32488548 348.04321569 907.33586773 336.59954773 907.35045731 325.1558598 C907.36485659 313.66332151 907.36778768 302.17083557 907.36001733 290.67828808 C907.35612101 284.4640841 907.35699172 278.24998095 907.37107468 272.03578949 C907.38386983 266.33788621 907.38256722 260.64015899 907.37048396 254.94225576 C907.36853705 252.89216053 907.37155831 250.84205257 907.38032833 248.79197518 C907.52844816 211.79915661 897.03197601 180.32662738 871.375 153 C856.07416854 138.24239333 837.28825168 128.76951722 817 123 C816.35562988 122.8129248 815.71125977 122.62584961 815.04736328 122.43310547 C806.46086367 120.09563362 797.69918117 119.85093063 788.84705067 119.87136555 C787.38279418 119.86873599 787.38279418 119.86873599 785.88895676 119.86605331 C782.6283341 119.86141317 779.36775643 119.86385369 776.10713196 119.86628723 C773.74155602 119.86441826 771.37598039 119.86211721 769.01040524 119.85942191 C763.19759438 119.85394859 757.38479587 119.85312057 751.57198285 119.85428276 C744.60596774 119.8554214 737.63995945 119.85077308 730.67394631 119.8460034 C716.23167188 119.83634071 701.789401 119.83351956 687.34712372 119.83294634 C676.19235969 119.8324865 665.03759706 119.8304266 653.88283348 119.82724571 C650.66997359 119.82634814 647.4571137 119.82545833 644.24425381 119.82457083 C643.44548817 119.82434979 642.64672252 119.82412874 641.82375186 119.82390099 C619.36081768 119.81774818 596.89788398 119.81380029 574.43494892 119.81424427 C573.58832557 119.81425985 572.74170222 119.81427543 571.86942361 119.81429148 C567.57855203 119.81437458 563.28768045 119.81447362 558.99680886 119.81457619 C558.14465285 119.81459613 557.29249684 119.81461608 556.41451793 119.81463663 C554.69125123 119.81467706 552.96798454 119.81471886 551.24471785 119.81476202 C524.43698421 119.81537469 497.62926322 119.80786908 470.8215332 119.79418945 C440.69086753 119.77882045 410.56021017 119.77022372 380.42954034 119.77115268 C377.21510867 119.7712273 374.00067701 119.77127601 370.78624535 119.77130699 C369.99479332 119.77131865 369.20334129 119.7713303 368.38790587 119.77134231 C355.66571688 119.77137305 342.9435389 119.76499426 330.22135318 119.75637473 C317.42954003 119.74788743 304.63774294 119.74691673 291.84592853 119.75348405 C284.91960098 119.75684855 277.99330971 119.75706965 271.06698608 119.7481308 C264.72147565 119.740265 258.37603655 119.74169815 252.03052785 119.75041493 C249.7398614 119.75194972 247.44918961 119.75013455 245.15852944 119.74455485 C229.99947661 119.7100871 215.10570998 119.78977012 200.5625 124.625 Z " fill="#F8F8F8" transform="translate(0,0)"/>
<path d="M0 0 C6.8955552 5.76404518 14.08181066 12.38445125 19.25 19.75 C22.89398815 18.53533728 23.55866082 17.29903505 25.8125 14.25 C38.64672896 -2.13114314 56.63514579 -12.4788564 77.25 -15.25 C102.81220413 -17.21665735 126.07538053 -11.41624113 146.25 4.75 C154.55760775 11.94914885 160.75806921 19.95475359 165.15234375 30.05078125 C168.83572216 38.7018616 168.83572216 38.7018616 175.703125 44.703125 C178.28833128 45.50102817 180.77754209 46.19778184 183.40234375 46.80078125 C193.76819701 49.35804251 202.28594613 55.90064507 210.25 62.75 C211.22324219 63.52472656 212.19648437 64.29945313 213.19921875 65.09765625 C226.55389379 76.24877815 237.28258101 95.50193513 239.25 112.75 C239.85334913 123.07608701 239.83162708 133.49009974 238.46484375 143.74609375 C238.0192898 147.78219255 238.0192898 147.78219255 239.953125 151.30078125 C240.79359375 151.88214844 241.6340625 152.46351563 242.5 153.0625 C260.58382152 167.35251281 271.96220108 190.88708941 275.00244141 213.45019531 C277.6721344 238.25148522 272.66273128 263.76069142 257.25 283.75 C255.90855252 285.17871637 254.55544345 286.59663172 253.1875 288 C250.52552122 290.94632651 250.25643744 291.35731645 250.1875 295.5625 C250.50444246 296.96725343 250.8610599 298.36345381 251.25 299.75 C256.91077687 322.59820809 253.49438748 347.90512898 241.6875 368.1875 C228.68423295 388.38769722 211.20052055 403.04208932 188.25 410.75 C187.01765625 410.976875 185.7853125 411.20375 184.515625 411.4375 C180.95869994 412.43734119 180.95869994 412.43734119 179.75390625 415.91796875 C179.41678604 417.25213628 179.10441274 418.5927175 178.8125 419.9375 C172.84499022 442.2664789 157.54201262 460.2163304 137.73828125 471.8984375 C115.75972242 483.56454823 91.36890595 486.85914538 67.25 480.75 C62.77787964 479.34717693 58.5194917 477.68011995 54.25 475.75 C52.85007812 475.12158203 52.85007812 475.12158203 51.421875 474.48046875 C43.46805295 470.53764553 37.51718492 464.90959376 31.25 458.75 C30.54488281 458.06035156 29.83976562 457.37070312 29.11328125 456.66015625 C27.47670701 455.03778222 25.86006736 453.39860621 24.25 451.75 C23.27208147 450.76958678 22.29302756 449.79030388 21.3125 448.8125 C20.2915625 447.7915625 20.2915625 447.7915625 19.25 446.75 C18.86070312 447.28367187 18.47140625 447.81734375 18.0703125 448.3671875 C7.06493396 463.0241202 -6.23624093 473.93488468 -23.75 479.75 C-24.69875 480.06839844 -25.6475 480.38679688 -26.625 480.71484375 C-44.33446399 485.51853586 -65.40401305 484.54474536 -82.75 478.75 C-83.80574219 478.41097656 -84.86148438 478.07195312 -85.94921875 477.72265625 C-98.47998022 473.11985367 -109.33052045 464.00480333 -118.75 454.75 C-119.44609375 454.06679688 -120.1421875 453.38359375 -120.859375 452.6796875 C-128.60504772 444.54372894 -133.86842714 435.28071281 -136.93066406 424.54785156 C-138.67077883 417.57528653 -138.67077883 417.57528653 -142.78125 411.96484375 C-145.40992625 410.95280339 -148.00283728 410.37387179 -150.75 409.75 C-153.40112482 408.79350452 -155.98079104 407.69159595 -158.5625 406.5625 C-159.25045654 406.26206787 -159.93841309 405.96163574 -160.6472168 405.65209961 C-182.17809034 395.94715379 -198.91444981 377.24961228 -207.5 355.37109375 C-213.78845912 337.15421373 -215.66415316 317.17823417 -210.30859375 298.421875 C-209.65654214 295.30297081 -209.67477121 293.75512663 -210.75 290.75 C-212.42202218 288.4427803 -214.10511308 286.29455331 -215.9375 284.125 C-231.24635814 265.27365729 -237.71197488 242.52247122 -235.5390625 218.40917969 C-233.37030292 197.55129874 -226.41245734 179.84133865 -212.75 163.75 C-211.99396484 162.79287109 -211.99396484 162.79287109 -211.22265625 161.81640625 C-208.37770039 158.27794315 -205.62568368 155.98916157 -201.8125 153.5 C-199.43814436 151.87692173 -199.43814436 151.87692173 -197.75 149.75 C-197.19676231 145.87174788 -197.84663003 142.53077063 -198.75 138.75 C-203.32196215 119.20647165 -196.86393612 98.33607454 -186.69140625 81.66015625 C-175.49701169 64.87982637 -160.51999922 53.08057183 -141.75 45.75 C-139.98137357 45.44523669 -138.21062562 45.15239082 -136.4375 44.875 C-132.80772991 43.90431594 -131.39462712 42.51901062 -129.56640625 39.36328125 C-127.76399113 35.87362399 -126.17353039 32.29466894 -124.60986328 28.69287109 C-116.27480473 9.85970927 -99.49750313 -3.06103413 -80.70361328 -10.51855469 C-53.95136421 -20.53476791 -23.07487492 -17.0354221 0 0 Z " fill="#F6F6F7" transform="translate(491.75,277.25)"/>
<path d="M0 0 C0.91426758 -0.00636475 1.82853516 -0.01272949 2.77050781 -0.01928711 C17.05508069 0.24710087 29.21574284 6.27667379 39.5234375 16.01171875 C43.30868824 20.12640257 46.14085707 24.60555015 48.8125 29.5 C49.22371094 30.25152344 49.63492188 31.00304687 50.05859375 31.77734375 C55.13119981 42.0526227 55.10788046 53.51926955 55.08665466 64.74310303 C55.09111732 66.14449161 55.0964347 67.54587768 55.10252339 68.94726014 C55.11659002 72.76581304 55.11836886 76.58428412 55.11792648 80.40285921 C55.11958473 84.5338891 55.13266964 88.66488624 55.14411926 92.79589844 C55.16688802 101.8125031 55.17488065 110.8290841 55.17994571 119.84571362 C55.18321131 125.48294357 55.18973884 131.12016676 55.1969471 136.75739288 C55.2165001 152.38761549 55.23291269 168.01783185 55.23582363 183.64806747 C55.2360112 184.64660886 55.23619877 185.64515024 55.23639202 186.67395045 C55.23675826 188.6979092 55.23712196 190.72186794 55.23748314 192.74582669 C55.23766595 193.75041677 55.23784876 194.75500686 55.23803711 195.79003906 C55.23830793 197.29877812 55.23830793 197.29877812 55.23858423 198.83799675 C55.24212575 215.13506385 55.26915261 231.43199881 55.306535 247.72902009 C55.34467151 264.48982823 55.36398148 281.25057088 55.36428314 298.01142335 C55.3648664 307.41051125 55.3732738 316.80944135 55.40228081 326.20848846 C55.42686595 334.21101002 55.43402941 342.21331617 55.41903328 350.21586534 C55.41189423 354.29292507 55.4125909 358.36956002 55.43544388 362.44657135 C55.55779229 385.66753865 54.89534844 404.99029075 38 422.8125 C25.73096929 434.52469119 9.94140788 440.16301884 -6.94921875 439.8125 C-22.83577972 438.27941812 -35.06237647 431.6055025 -46.1875 420.5 C-46.76371094 419.93539063 -47.33992188 419.37078125 -47.93359375 418.7890625 C-55.91295974 410.29155587 -59.79460573 399.30061005 -60.625 387.875 C-61.08432184 382.24636124 -62.17047978 378.42269913 -66.359375 374.4296875 C-69.70636078 372.14597068 -72.1972242 371.67541313 -76.1875 371.0625 C-93.7529414 367.98402058 -109.54361637 359.55524956 -120.375 345.1875 C-128.1236488 334.06590996 -132.78255052 322.85373672 -132.625 309.1875 C-132.61581543 307.81609863 -132.61581543 307.81609863 -132.60644531 306.41699219 C-132.38832857 296.91716926 -129.96225403 289.22072468 -125.9375 280.625 C-124.14833029 276.70313999 -123.38074951 273.85645266 -124.1875 269.5 C-126.68636395 265.35042665 -130.04644344 262.52215199 -134 259.8125 C-146.01496262 251.1056724 -152.87235905 235.83454443 -155.1875 221.5 C-157.07189946 202.08775641 -153.15518029 185.41691903 -141.1015625 169.796875 C-135.46682085 163.13573059 -135.46682085 163.13573059 -131.1875 162.5 C-130.36958984 163.44359375 -130.36958984 163.44359375 -129.53515625 164.40625 C-114.81727092 181.11167882 -95.11446619 194.71493207 -72.1875 196.5 C-61.69047977 197.12751418 -51.49426897 196.98432706 -41.1875 194.75 C-40.45265381 194.59321777 -39.71780762 194.43643555 -38.96069336 194.27490234 C-33.71185298 192.99325877 -29.92342216 191.12762686 -26.90234375 186.5546875 C-25.51596995 182.56980981 -25.54715122 178.64266458 -26.1875 174.5 C-27.85761957 171.11835294 -30.13277902 169.03000169 -33.52734375 167.32421875 C-36.50073707 166.4029471 -38.48510194 166.44656298 -41.5625 166.8125 C-43.01462891 166.97492188 -43.01462891 166.97492188 -44.49609375 167.140625 C-46.5438691 167.41405799 -48.58616644 167.72887269 -50.625 168.0625 C-67.33228291 170.11427159 -83.2654285 166.06239483 -96.953125 156.23193359 C-107.61703281 147.85092427 -114.28206043 137.45514095 -118.1875 124.5 C-118.47753906 123.55253906 -118.47753906 123.55253906 -118.7734375 122.5859375 C-121.29717856 109.87199667 -118.49330732 96.1766102 -111.98046875 85.12890625 C-101.07304275 69.1361008 -85.55815106 59.63155534 -66.67578125 56.01953125 C-65.89589844 55.86871094 -65.11601562 55.71789062 -64.3125 55.5625 C-63.63445312 55.45035156 -62.95640625 55.33820313 -62.2578125 55.22265625 C-58.70962124 53.98413666 -56.02944925 52.20130006 -54.32519531 48.75756836 C-53.55770312 46.66859883 -52.89227967 44.56822248 -52.25 42.4375 C-46.55914978 25.17446063 -37.46787824 12.93248441 -21.4375 3.9609375 C-14.27878364 0.6239317 -7.82265291 0.04651661 0 0 Z " fill="#2E7EE2" transform="translate(441.1875,291.5)"/>
<path d="M0 0 C0.91571777 0.00829834 1.83143555 0.01659668 2.77490234 0.02514648 C16.66778897 0.36946657 28.20900567 5.20909525 38.4375 14.6875 C47.04254464 23.94973182 51.61213465 35.49562246 56.109375 47.109375 C57.71201298 50.48919568 58.66580792 52.26691785 61.6875 54.4375 C64.47528193 55.35599604 67.30135179 55.86233877 70.1875 56.375 C84.62299094 59.28758877 95.57783836 64.50813607 105.6875 75.4375 C106.15671875 75.91316406 106.6259375 76.38882813 107.109375 76.87890625 C116.65592583 87.08977892 121.46652882 101.36376884 121.03125 115.23828125 C119.28743642 131.46763717 112.38417506 145.12036596 99.6875 155.4375 C90.87672789 161.53645363 82.16325585 165.06941726 71.6875 167.4375 C70.84832031 167.63085938 70.00914062 167.82421875 69.14453125 168.0234375 C62.85674149 169.08306503 56.24971373 168.98980807 50.0625 167.4375 C43.78253936 165.86466049 38.08600135 165.23824933 32.1875 168.1875 C29.19740209 170.87858812 27.91836476 172.81070878 27.3515625 176.8046875 C27.28707942 180.9445014 27.48457477 183.9394108 29.0625 187.8125 C36.2648225 195.0148225 48.31199587 196.65547371 58.13232422 196.76708984 C59.42807373 196.75863037 59.42807373 196.75863037 60.75 196.75 C61.66539551 196.74436035 62.58079102 196.7387207 63.52392578 196.73291016 C92.92732721 196.21508216 112.63165883 182.8773892 132.6875 162.4375 C143.37072935 167.11732171 148.33359134 179.35027921 152.6875 189.4375 C153.26564453 190.77554688 153.26564453 190.77554688 153.85546875 192.140625 C159.20408512 207.70936749 156.44688207 227.05785255 149.5625 241.5625 C144.76292912 251.032725 137.62780274 257.94024729 129.53515625 264.6484375 C127.60298281 266.51933694 126.62081457 267.92585765 125.6875 270.4375 C125.6875 277.44070952 127.92868826 283.26737799 130.515625 289.67675781 C136.33334913 304.21393858 134.17723453 319.8528927 128.1796875 333.9921875 C124.38062988 341.50195256 119.65244102 347.53534784 113.6875 353.4375 C113.09710937 354.06140625 112.50671875 354.6853125 111.8984375 355.328125 C102.7026912 364.32132182 90.26430473 368.95559647 77.80322266 371.07104492 C71.9263152 372.11312063 67.45475742 373.93896364 63.875 379 C62.80159381 382.10722844 62.49718778 384.21256721 62.3125 387.4375 C61.31342459 401.57825959 54.15680518 414.94421636 43.9140625 424.59375 C30.3040843 435.86376703 14.3126088 441.0108148 -3.3125 439.4375 C-19.49878186 436.61293462 -32.01402728 429.07127107 -42.3125 416.4375 C-51.57945763 403.14500227 -53.46190844 391.50310763 -53.45967102 375.66159058 C-53.46297378 374.25000665 -53.46670021 372.83842366 -53.4708125 371.42684186 C-53.48079339 367.55701401 -53.48454295 363.68720167 -53.48720181 359.81736279 C-53.4911164 355.63995905 -53.50069375 351.46256746 -53.50941467 347.28517151 C-53.52914426 337.2026629 -53.53923984 327.12015334 -53.54814246 317.03763026 C-53.55253022 312.28546343 -53.55789568 307.5332977 -53.56313133 302.78113174 C-53.58013843 286.97782307 -53.59463245 271.17451507 -53.60188007 255.37119865 C-53.60378984 251.27350743 -53.6057102 247.17581621 -53.60766602 243.078125 C-53.60814976 242.05971268 -53.6086335 241.04130036 -53.6091319 239.99202706 C-53.61743179 223.49541093 -53.64277037 206.99886731 -53.67524669 190.50228284 C-53.70834153 173.55294101 -53.72633094 156.60363601 -53.72952431 139.65426171 C-53.73168692 130.14287383 -53.74039933 120.63159177 -53.76598549 111.12023544 C-53.78772544 103.02018411 -53.79572663 94.92026434 -53.78601871 86.82018714 C-53.78148384 82.69093176 -53.78331264 78.56194764 -53.80278015 74.43272972 C-53.8204829 70.64497576 -53.81935722 66.85768952 -53.80388286 63.06993009 C-53.80040582 61.06669901 -53.81647962 59.06346261 -53.83348733 57.06030071 C-53.71692716 40.53748993 -47.99438025 26.04544433 -36.41015625 14.27734375 C-26.19365405 4.52478249 -14.00641778 -0.16534812 0 0 Z " fill="#1E94DF" transform="translate(581.3125,291.5625)"/>
<path d="M0 0 C18.88661124 6.6902416 32.89008675 18.40730279 41.82910156 36.33544922 C46.51295673 46.58106797 49.47166392 58.04278652 47.73828125 69.32421875 C45.58424871 74.40944898 43.83719637 76.9568653 38.73828125 79.32421875 C33.41294698 80.10083 29.14752681 79.97851133 24.23828125 77.69921875 C19.80623314 73.48877305 18.71179961 69.60799205 17.86328125 63.69921875 C15.92792593 51.18908196 10.66288625 41.62753745 0.6953125 33.69921875 C-5.63167559 29.45596925 -12.42077537 27.56247159 -19.88671875 26.44921875 C-25.24957081 25.54663495 -28.2082735 23.94644642 -32.26171875 20.32421875 C-35.02094824 15.9020193 -34.9087513 11.38065828 -34.26171875 6.32421875 C-27.61399677 -7.21743714 -12.08769943 -3.57735653 0 0 Z " fill="#F5F6F6" transform="translate(615.26171875,537.67578125)"/>
<path d="M0 0 C2.95091882 2.34560214 3.8428293 4.0392087 4.44921875 7.74609375 C4.74313024 12.9777183 4.75673519 16.44304532 1.53515625 20.72265625 C-2.16334563 24.69925744 -5.99342407 25.55922187 -11.1875 26.5625 C-24.63559655 29.66323692 -33.68354762 34.55005949 -41.49609375 46.23828125 C-44.75377908 51.98998086 -45.9650686 57.80988985 -46.8371582 64.29125977 C-47.6832944 70.0173714 -49.78015244 73.98195677 -54.0625 77.875 C-58.72214929 79.65954654 -63.09121569 79.87080008 -68 79 C-72.81958925 76.43183521 -75.35240811 73.17923562 -77 68 C-78.87582802 54.1781093 -73.99752785 38.2975604 -66 27 C-52.69987487 10.63857079 -22.32274603 -13.77360925 0 0 Z " fill="#F5F6F6" transform="translate(438,538)"/>
<path d="M0 0 C3.83685616 5.75528424 3.14547084 13.27279525 3.12584114 20.00815773 C3.12729458 20.88493811 3.12874802 21.76171849 3.13024551 22.66506797 C3.13389172 25.59994124 3.13042534 28.53476213 3.12698364 31.46963501 C3.12813606 33.59690165 3.1297244 35.72416809 3.13171089 37.85143411 C3.13588888 43.69617797 3.13382025 49.54090552 3.13072467 55.38564944 C3.12846406 61.69183383 3.13195385 67.99801539 3.13470459 74.30419922 C3.13889954 85.95323696 3.13852785 97.60226809 3.13579312 109.25130599 C3.13327394 120.03648905 3.13262249 130.8216702 3.13381577 141.60685349 C3.13389215 142.32330085 3.13396854 143.03974821 3.13404724 143.7779061 C3.13435862 146.6868851 3.13467702 149.5958641 3.135007 152.5048431 C3.13806793 179.81609852 3.13529174 207.12735066 3.1299101 234.43860557 C3.12518361 258.60799794 3.12557262 282.77738503 3.13037109 306.94677734 C3.13575429 334.15188216 3.13783159 361.35698405 3.13475883 388.56208932 C3.13443818 391.47744203 3.13412534 394.39279473 3.13381577 397.30814743 C3.13373669 398.02587852 3.13365761 398.74360961 3.13357614 399.48309013 C3.13244844 410.22495015 3.13375086 420.96680803 3.13629532 431.70866776 C3.13918717 443.97767214 3.13827902 456.24666944 3.13301457 468.51567324 C3.13042396 474.75520209 3.12929118 480.99472039 3.13266373 487.23424911 C3.13998819 502.48994419 3.10431448 517.74464544 3 533 C2.99360494 534.05321975 2.98720989 535.10643949 2.98062104 536.19157499 C2.94059056 542.47902075 2.87742867 548.76554251 2.78275786 555.05241077 C2.75623485 556.96698455 2.73560254 558.88165233 2.72188546 560.79636069 C2.58073789 578.8094218 0.49447134 596.44458994 -7 613 C-7.33 613 -7.66 613 -8 613 C-7.62651454 608.74226578 -7.22981769 605.14744555 -5.4375 601.25 C-3.73032932 597.98259598 -3.73032932 597.98259598 -4 594 C-3.34 594 -2.68 594 -2 594 C-0.03193737 575.73674689 0.14610597 557.45293809 0.12025452 539.10099792 C0.12069164 536.76061104 0.12156914 534.4202242 0.12284368 532.07983762 C0.12506093 525.70819158 0.12110567 519.3365626 0.11606562 512.96491873 C0.1116698 506.78135514 0.11302827 500.59779128 0.11374746 494.4142266 C0.11505526 481.78093688 0.11174332 469.14765243 0.10573006 456.51436424 C0.09979792 444.01927858 0.09596107 431.52419511 0.09487724 419.02910805 C0.0948085 418.25003834 0.09473976 417.47096864 0.09466894 416.66829076 C0.09433057 412.71123361 0.0940292 408.75417645 0.09374207 404.7971193 C0.09164581 376.82348494 0.08492008 348.84985345 0.07543945 320.8762207 C0.06624409 293.7128094 0.05916584 266.54939888 0.05493164 239.38598633 C0.05473435 238.12839918 0.05473435 238.12839918 0.05453308 236.84540624 C0.05321447 228.4253641 0.05193867 220.00532196 0.05069422 211.58527981 C0.04815851 194.43513381 0.04533726 177.28498785 0.04234314 160.13484192 C0.04220585 159.34643474 0.04206856 158.55802757 0.04192711 157.74572927 C0.032738 105.16381831 0.01687327 52.58190899 0 0 Z " fill="#24ACDA" transform="translate(904,219)"/>
<path d="M0 0 C1.26199219 -0.00515625 2.52398437 -0.0103125 3.82421875 -0.015625 C5.13003906 -0.00015625 6.43585938 0.0153125 7.78125 0.03125 C9.73998047 0.00804687 9.73998047 0.00804687 11.73828125 -0.015625 C13.00027344 -0.01046875 14.26226562 -0.0053125 15.5625 0 C16.70783203 0.00451172 17.85316406 0.00902344 19.03320312 0.01367188 C24.14898713 0.82887498 27.24068474 3.38115155 30.65625 7.15625 C32.85827931 11.72969549 33.08590156 15.54078476 32.28125 20.53125 C30.06882561 24.95609878 27.33325384 27.72601657 23.28125 30.53125 C18.31455381 32.1868154 13.16916871 31.757732 7.96875 31.78125 C6.84017578 31.801875 5.71160156 31.8225 4.54882812 31.84375 C-2.14268764 31.87525802 -7.23512807 31.78318211 -12.36328125 26.99609375 C-16.72092198 21.29764048 -17.49784092 17.66377252 -16.71875 10.53125 C-13.24456467 3.31563432 -7.93063898 0.03124056 0 0 Z " fill="#F6F6F7" transform="translate(423.71875,393.46875)"/>
<path d="M0 0 C1.27617188 -0.02900391 2.55234375 -0.05800781 3.8671875 -0.08789062 C15.4728086 -0.1666344 15.4728086 -0.1666344 20.25 4.3125 C21.013125 5.01375 21.77625 5.715 22.5625 6.4375 C25.01137675 10.60966038 25.43522523 14.5120795 25.25 19.3125 C23.5544173 24.5987284 20.61069001 27.1328302 16.25 30.3125 C11.31590057 31.95719981 6.22949034 31.58083769 1.0625 31.625 C-0.04931641 31.65400391 -1.16113281 31.68300781 -2.30664062 31.71289062 C-9.29952831 31.76671392 -13.82010912 31.09548044 -19.75 27.3125 C-23.33407762 23.63882044 -24.02015703 20.73012684 -24.1875 15.75 C-24.01375404 11.47584949 -23.65676312 8.62019596 -20.75 5.3125 C-14.01243017 -0.60341497 -8.73024637 0.06534616 0 0 Z " fill="#F6F7F7" transform="translate(591.75,393.6875)"/>
<path d="M0 0 C3.75641725 0.00871893 7.5128286 0.00570843 11.26925313 0.00419545 C17.76132466 0.00315189 24.25335566 0.00937286 30.745417 0.02067113 C40.13158987 0.03699535 49.51774336 0.04214118 58.90392888 0.04464711 C74.13611713 0.04901341 89.36828384 0.06229346 104.60046041 0.08125234 C119.38821974 0.09963881 134.17597319 0.11378174 148.96374166 0.12226796 C149.87680845 0.12279341 150.78987524 0.12331886 151.73061072 0.12386023 C156.31166104 0.12647049 160.89271141 0.12899786 165.4737618 0.13148403 C203.41729568 0.15218332 241.36080507 0.18737967 279.30431783 0.23213124 C276.8289513 2.70749777 275.41739348 2.47178229 272.03956556 2.49495596 C271.30105765 2.48981239 270.56254974 2.48466883 269.8016628 2.4793694 C268.62726984 2.48299103 268.62726984 2.48299103 267.42915177 2.48668581 C264.79126561 2.49234621 262.15361911 2.48364207 259.51574361 2.47505116 C257.63033645 2.47612349 255.74492961 2.47806142 253.85952413 2.48080373 C248.72727391 2.48566389 243.59511023 2.47798129 238.46287048 2.46785069 C233.09954488 2.45908658 227.73622213 2.46082733 222.37289083 2.46121144 C213.36255093 2.46027388 204.35224464 2.45157852 195.34191549 2.43794179 C184.91846153 2.42222483 174.49504441 2.41694331 164.07157946 2.41767734 C154.05601278 2.41828745 144.04045814 2.41318295 134.02489507 2.40488553 C129.75783733 2.40135125 125.49078385 2.39952207 121.22372472 2.39899182 C116.19888238 2.39798819 111.17407105 2.39188985 106.14923894 2.38182569 C104.30292867 2.3789015 102.45661483 2.37767515 100.61030233 2.37825322 C98.09381515 2.37874301 95.57741519 2.37309702 93.06094015 2.36584401 C92.32689368 2.36739261 91.59284721 2.36894122 90.83655691 2.37053674 C87.51664704 2.35469042 84.47878956 2.26215712 81.30431783 1.23213124 C80.97431783 1.89213124 80.64431783 2.55213124 80.30431783 3.23213124 C80.30431783 2.57213124 80.30431783 1.91213124 80.30431783 1.23213124 C79.16736471 1.39713124 78.03041158 1.56213124 76.85900533 1.73213124 C72.36150596 2.29506197 67.95466155 2.31152324 63.42931783 2.23213124 C58.21287054 1.90581563 58.21287054 1.90581563 53.30431783 3.23213124 C51.86163616 3.11875744 50.42337505 2.94385735 48.99181783 2.73213124 C45.43781671 2.27867017 42.81223881 2.49362156 39.30431783 3.23213124 C37.67821726 2.98261256 36.05216513 2.73277311 34.42638814 2.48115468 C30.29532454 1.99637731 26.14574725 2.08900501 21.99181783 2.10713124 C21.08625143 2.10326406 20.18068502 2.09939687 19.24767721 2.09541249 C17.9512026 2.09734609 17.9512026 2.09734609 16.62853658 2.09931874 C15.84567281 2.10044667 15.06280904 2.1015746 14.25622213 2.10273671 C12.22406738 2.11097681 12.22406738 2.11097681 10.30431783 3.23213124 C10.30431783 2.57213124 10.30431783 1.91213124 10.30431783 1.23213124 C9.40970846 1.39842031 8.51509908 1.56470937 7.59338033 1.73603749 C0.88902369 2.6959718 -5.95979496 2.23351908 -12.71130717 2.10517812 C-14.33165873 2.08874257 -14.33165873 2.08874257 -15.98474467 2.07197499 C-17.44968363 2.04671742 -17.44968363 2.04671742 -18.94421732 2.0209496 C-21.88900648 2.24696936 -23.98636821 3.11006038 -26.69568217 4.23213124 C-27.60318217 4.06713124 -28.51068217 3.90213124 -29.44568217 3.73213124 C-33.88742215 3.04878663 -37.39242672 4.14026046 -41.69568217 5.23213124 C-43.19547959 5.52483782 -44.69547814 5.8165158 -46.19568217 6.10713124 C-50.31577989 7.00750225 -53.90618032 8.56609324 -57.70740092 10.36494374 C-59.69568217 11.23213124 -59.69568217 11.23213124 -62.25818217 11.66963124 C-65.51992293 12.42234065 -67.85355449 14.0733371 -70.63318217 15.90009999 C-72.57210812 17.152323 -74.54039915 18.26162437 -76.57068217 19.35713124 C-79.87405148 21.035925 -79.87405148 21.035925 -81.69568217 24.23213124 C-82.19068217 23.24213124 -82.19068217 23.24213124 -82.69568217 22.23213124 C-83.96769188 23.33494251 -85.23824069 24.43943893 -86.50818217 25.54463124 C-87.56972514 26.46695546 -87.56972514 26.46695546 -88.65271342 27.40791249 C-89.87980517 28.50361392 -91.08516412 29.62554736 -92.24255717 30.79463124 C-93.69568217 32.23213124 -93.69568217 32.23213124 -95.31677592 33.49384999 C-104.1469095 40.42503012 -111.10945223 50.56239989 -116.69568217 60.23213124 C-117.20228373 61.03392812 -117.70888529 61.83572499 -118.23083842 62.66181874 C-121.24574578 67.48875482 -123.47219384 71.67082067 -124.69568217 77.23213124 C-125.38323373 80.32611325 -125.84664924 81.45858184 -127.69568217 84.23213124 C-129.82572406 90.35727562 -131.0311231 96.4843616 -131.48474467 102.94306874 C-131.69568217 105.23213124 -131.69568217 105.23213124 -132.20134985 107.4840796 C-132.75145676 110.54218878 -132.81855465 113.38249939 -132.81593668 116.49002004 C-132.81731135 117.75060231 -132.81868601 119.01118459 -132.82010233 120.30996633 C-132.81656366 121.69914198 -132.81292886 123.08831739 -132.80920756 124.47749257 C-132.80892536 125.94619169 -132.80908405 127.41489095 -132.80965006 128.88358998 C-132.80993678 132.86458428 -132.80406037 136.84554841 -132.79707611 140.8265357 C-132.79082163 144.98921374 -132.79023711 149.15189247 -132.7890507 153.31457448 C-132.78594356 161.19446736 -132.77773849 169.07434635 -132.76770121 176.95423311 C-132.75652091 185.92636508 -132.75102479 194.89849771 -132.74600577 203.87063491 C-132.73555537 222.32447489 -132.71796787 240.77830195 -132.69568217 259.23213124 C-133.02568217 259.23213124 -133.35568217 259.23213124 -133.69568217 259.23213124 C-134.63368566 240.96261502 -134.88916966 222.71826424 -134.93396342 204.42744374 C-134.93802969 202.99021699 -134.94214701 201.55299037 -134.9463135 200.1157639 C-134.96520923 193.37113333 -134.97948734 186.62651281 -134.98792547 179.88186109 C-134.99772755 172.18418433 -135.02419028 164.48679274 -135.06442636 156.7892164 C-135.09478037 150.7698152 -135.10941123 144.75049525 -135.11270648 138.73101914 C-135.11502886 135.16480247 -135.12361884 131.59889603 -135.14916766 128.03276372 C-135.39637017 91.64990678 -126.19711028 61.77938626 -101.12927592 34.66963124 C-92.90835903 26.43551866 -83.80439507 19.9414532 -73.69568217 14.23213124 C-72.29962748 13.43162343 -72.29962748 13.43162343 -70.87536967 12.61494374 C-64.92259737 9.41470683 -58.78961531 7.08076822 -52.38318217 4.98213124 C-51.64954447 4.73575917 -50.91590678 4.4893871 -50.16003764 4.23554921 C-33.87249849 -0.84487095 -16.85757907 -0.04916095 0 0 Z " fill="#7229E4" transform="translate(252.6956821680069,119.76786875724792)"/>
<path d="M0 0 C0.33 0 0.66 0 1 0 C1.11702352 26.84344557 1.20508127 53.68685266 1.25906086 80.53050232 C1.28479548 92.99568227 1.31985522 105.46070332 1.37719727 117.92578125 C1.42717751 128.79576511 1.45932544 139.66563383 1.47044247 150.53572941 C1.47693647 156.28648706 1.49209997 162.03691546 1.52865028 167.78756714 C1.56284097 173.21142511 1.57300669 178.63482134 1.56553841 184.05877686 C1.5669027 186.03875242 1.57669645 188.01874504 1.59602737 189.99862671 C1.7607668 207.75741678 -0.78232699 223.76055969 -13.2265625 237.44921875 C-15.10840588 239.35433582 -17.01634639 241.20183088 -19 243 C-19.66 242.67 -20.32 242.34 -21 242 C-21 241.01 -21 240.02 -21 239 C-20.01 239 -19.02 239 -18 239 C-16.64172029 237.35360035 -15.30745749 235.68704193 -14 234 C-13.34 234 -12.68 234 -12 234 C-12.33 232.68 -12.66 231.36 -13 230 C-12.01 230 -11.02 230 -10 230 C-6.91787907 224.36513006 -4.49296414 219.16059921 -3.359375 212.8125 C-3 211 -3 211 -2 209 C-1.91109564 207.26489303 -1.88703779 205.52631186 -1.89341736 203.78894043 C-1.89488455 202.68198318 -1.89635174 201.57502594 -1.89786339 200.43452454 C-1.90441759 199.21283066 -1.91097179 197.99113678 -1.91772461 196.73242188 C-1.92177459 194.76107232 -1.92581825 192.78972274 -1.92963552 190.81837273 C-1.93458792 188.68630459 -1.94186608 186.55425479 -1.94970894 184.42219543 C-1.97430358 177.56775238 -1.9816566 170.71328158 -1.98910558 163.85880184 C-1.99084525 162.25830538 -1.99273412 160.65780908 -1.99476683 159.05731297 C-2.0167184 141.08978267 -1.9329819 123.12335901 -1.81640625 105.15625 C-1.80905685 104.02340954 -1.80905685 104.02340954 -1.80155897 102.86768341 C-1.74678026 94.48614724 -1.68824333 86.10464073 -1.62768555 77.72314453 C-1.57665769 70.66056027 -1.53124025 63.59795283 -1.48800808 56.53531694 C-1.44984929 50.34116344 -1.40796442 44.1470425 -1.36312145 37.95293379 C-1.33677982 34.30581598 -1.31191316 30.6587038 -1.29092598 27.0115509 C-1.26781971 23.02002395 -1.2369698 19.02857823 -1.20532227 15.03710938 C-1.1995668 13.85340256 -1.19381134 12.66969574 -1.18788147 11.45011902 C-1.17809265 10.37325333 -1.16830383 9.29638763 -1.15821838 8.18688965 C-1.15176583 7.25164207 -1.14531328 6.3163945 -1.1386652 5.35280609 C-1 3 -1 3 0 0 Z " fill="#0F87DD" transform="translate(495,474)"/>
<path d="M0 0 C100.32 0 200.64 0 304 0 C301.52463347 2.47536653 300.11307565 2.23965105 296.73524773 2.26282471 C295.99673982 2.25768115 295.25823191 2.25253759 294.49734497 2.24723816 C293.32295201 2.25085978 293.32295201 2.25085978 292.12483394 2.25455457 C289.48694777 2.26021497 286.84930127 2.25151082 284.21142578 2.24291992 C282.32601862 2.24399224 280.44061177 2.24593018 278.5552063 2.24867249 C273.42295608 2.25353264 268.2907924 2.24585005 263.15855265 2.23571944 C257.79522705 2.22695534 252.4319043 2.22869609 247.068573 2.2290802 C238.0582331 2.22814264 229.04792681 2.21944727 220.03759766 2.20581055 C209.61414369 2.19009359 199.19072658 2.18481207 188.76726162 2.1855461 C178.75169495 2.18615621 168.7361403 2.18105171 158.72057724 2.17275429 C154.4535195 2.16922001 150.18646602 2.16739082 145.91940689 2.16686058 C140.89456455 2.16585695 135.86975322 2.1597586 130.84492111 2.14969444 C128.99861084 2.14677026 127.152297 2.14554391 125.3059845 2.14612198 C122.78949732 2.14661177 120.27309736 2.14096578 117.75662231 2.13371277 C117.02257585 2.13526137 116.28852938 2.13680997 115.53223908 2.1384055 C112.2123292 2.12255918 109.17447173 2.03002588 106 1 C105.67 1.66 105.34 2.32 105 3 C105 2.34 105 1.68 105 1 C103.29457031 1.2475 103.29457031 1.2475 101.5546875 1.5 C97.05718813 2.06293073 92.65034372 2.079392 88.125 2 C82.90855271 1.67368439 82.90855271 1.67368439 78 3 C76.55731833 2.88662619 75.11905722 2.71172611 73.6875 2.5 C70.13349888 2.04653893 67.50792098 2.26149032 64 3 C62.37389943 2.75048132 60.7478473 2.50064187 59.12207031 2.24902344 C54.99100671 1.76424607 50.84142942 1.85687376 46.6875 1.875 C45.78193359 1.87113281 44.87636719 1.86726563 43.94335938 1.86328125 C42.64688477 1.86521484 42.64688477 1.86521484 41.32421875 1.8671875 C40.54135498 1.86831543 39.75849121 1.86944336 38.9519043 1.87060547 C36.91974955 1.87884557 36.91974955 1.87884557 35 3 C35 2.34 35 1.68 35 1 C34.09636719 1.16113281 33.19273437 1.32226562 32.26171875 1.48828125 C26.79996135 2.26499732 21.31872623 2.18417699 15.8125 2.1875 C14.19311523 2.20586914 14.19311523 2.20586914 12.54101562 2.22460938 C11.50267578 2.22654297 10.46433594 2.22847656 9.39453125 2.23046875 C7.98457886 2.23663208 7.98457886 2.23663208 6.54614258 2.24291992 C4 2 4 2 0 0 Z " fill="#4D2FE3" transform="translate(228,120)"/>
<path d="M0 0 C3.17013538 2.30555301 5.77157573 4.78947356 8.3125 7.75 C23.06867024 24.854464 41.4654988 34.36675492 64 37 C86.91607482 38.38240823 110.76605033 32.32667474 129 18 C129.66 18.33 130.32 18.66 131 19 C130.21625 19.598125 129.4325 20.19625 128.625 20.8125 C125.85425677 22.91085249 125.85425677 22.91085249 124 26 C122.40842071 26.74499456 120.807659 27.47504089 119.171875 28.1171875 C116.6615142 29.13758596 114.25281561 30.32215981 111.8125 31.5 C106.02396216 34.15142105 100.18552408 35.59097661 94 37 C92.70503763 37.36345598 91.41265117 37.73643566 90.125 38.125 C84.07146597 39.81998953 78.36501042 40.15625214 72.125 40.125 C70.97837891 40.13080078 70.97837891 40.13080078 69.80859375 40.13671875 C63.21258394 40.12552009 56.69368821 39.8536657 50.4375 37.5625 C47.68136243 36.58666546 44.94086289 35.66344161 42.125 34.875 C40.06889078 34.29928942 38.02561719 33.67520573 36 33 C36 32.34 36 31.68 36 31 C35.29875 30.896875 34.5975 30.79375 33.875 30.6875 C30.60862353 29.90640997 27.9528148 28.57941257 25 27 C25 26.34 25 25.68 25 25 C24.01 25 23.02 25 22 25 C20.57287865 23.57287865 19.15743969 22.13403524 17.75 20.6875 C14.95231661 17.95340032 12.00915439 15.4969579 9 13 C7.64691687 11.68671343 6.31129922 10.35500919 5 9 C4.2575 8.2575 3.515 7.515 2.75 6.75 C2.1725 6.1725 1.595 5.595 1 5 C-2.16890978 7.30466166 -4.73514578 9.77203743 -7.25 12.75 C-14.17104935 20.77483739 -21.48842439 26.34844864 -31 31 C-32.00289063 31.51175781 -33.00578125 32.02351562 -34.0390625 32.55078125 C-39.67248098 35.30803489 -39.67248098 35.30803489 -42 36 C-42.99 35.34 -43.98 34.68 -45 34 C-43.83984375 33.52691406 -42.6796875 33.05382812 -41.484375 32.56640625 C-24.56693909 25.48359134 -10.2094887 15.65454933 0 0 Z " fill="#0EA0D9" transform="translate(511,723)"/>
<path d="M0 0 C3.10415931 2.53976671 3.87460076 5.22187398 5 9 C5.33 9.66 5.66 10.32 6 11 C6.039992 12.99960012 6.04346799 15.00047242 6 17 C6.66 17 7.32 17 8 17 C9 20 9 20 9 23 C9.13043978 24.79285311 9.2780712 26.5844919 9.4375 28.375 C9.51871094 29.31085938 9.59992187 30.24671875 9.68359375 31.2109375 C9.9377706 33.94628362 9.9377706 33.94628362 10.55859375 36.359375 C11.15120121 39.90453112 10.89128203 43.3134778 10.625 46.875 C10.58117187 47.55691406 10.53734375 48.23882812 10.4921875 48.94140625 C10.19119207 53.33092298 9.65507117 57.64694642 9 62 C8.87625 63.19625 8.7525 64.3925 8.625 65.625 C7.97525398 69.13362848 6.90330098 71.03085047 5 74 C4.7009375 74.91523437 4.401875 75.83046875 4.09375 76.7734375 C2.61704201 81.12972608 0.47822088 85.03526254 -1.66015625 89.09765625 C-3.11111369 91.89442774 -3.11111369 91.89442774 -3.43359375 94.74609375 C-3.62050781 95.48988281 -3.80742188 96.23367188 -4 97 C-5.82421875 98.05859375 -5.82421875 98.05859375 -8 99 C-11.41698673 102.22601742 -14.7553414 105.67391747 -15.26171875 110.48828125 C-14.89268224 113.85367393 -14.06990225 116.79029325 -13 120 C-13.99 120.99 -13.99 120.99 -15 122 C-15.53469802 120.27507022 -16.05219175 118.544802 -16.5625 116.8125 C-16.85253906 115.84957031 -17.14257812 114.88664063 -17.44140625 113.89453125 C-18.05255013 110.72769477 -18.05156936 109.03893899 -17 106 C-15.14453125 103.45703125 -15.14453125 103.45703125 -12.8125 100.8125 C3.91319715 80.91103757 8.72678312 56.45628678 7 31 C5.94844177 20.51155471 2.85737516 10.75778697 -1 1 C-0.67 0.67 -0.34 0.34 0 0 Z " fill="#0E9DD9" transform="translate(759,462)"/>
<path d="M0 0 C0.33 0 0.66 0 1 0 C1.144375 1.11375 1.28875 2.2275 1.4375 3.375 C1.78372035 6.82142047 1.78372035 6.82142047 3 9 C3.09828424 11.56918463 3.13630121 14.11122548 3.12939453 16.68066406 C3.13114685 17.47467117 3.13289917 18.26867828 3.13470459 19.08674622 C3.13912698 21.72972769 3.13617821 24.37264275 3.1328125 27.015625 C3.13348676 28.86578382 3.1344578 30.71594256 3.13571167 32.56610107 C3.13719023 36.46350947 3.13503391 40.36089503 3.13037109 44.25830078 C3.1247522 49.18917965 3.12798685 54.1200036 3.13382339 59.05088043 C3.17281683 98.08448828 3.17281683 98.08448828 2 116 C1.67 116 1.34 116 1 116 C0.25399846 112.66894457 -0.12411765 109.59588471 -0.12025452 106.18473816 C-0.12162918 105.24389374 -0.12300385 104.30304932 -0.12442017 103.33369446 C-0.12082489 102.31373886 -0.11722961 101.29378326 -0.11352539 100.24291992 C-0.11367142 99.15954346 -0.11381744 98.07616699 -0.1139679 96.95996094 C-0.11327192 93.38344309 -0.1054942 89.80697749 -0.09765625 86.23046875 C-0.09579095 83.74896778 -0.09436758 81.26746644 -0.09336853 78.78596497 C-0.08955215 72.25773093 -0.07972934 65.72951918 -0.06866455 59.20129395 C-0.05789079 52.53849711 -0.05386686 45.8756938 -0.04882812 39.21289062 C-0.03810631 26.14191758 -0.02123289 13.07095998 0 0 Z " fill="#1678DF" transform="translate(528,338)"/>
<path d="M0 0 C1.37140137 0.01135986 1.37140137 0.01135986 2.77050781 0.02294922 C14.31838071 0.30236614 23.52802023 3.33712808 32.6875 10.4375 C32.0275 10.7675 31.3675 11.0975 30.6875 11.4375 C27.78081125 10.05390107 24.98418944 8.55499405 22.18164062 6.97460938 C17.77631943 4.62289656 14.61644805 4.28555955 9.6875 4.4375 C9.0275 3.7775 8.3675 3.1175 7.6875 2.4375 C-1.78718114 1.43260958 -12.6402246 2.00406084 -20.96484375 7.04296875 C-23.3125 8.4375 -23.3125 8.4375 -26.3125 8.4375 C-26.3125 9.0975 -26.3125 9.7575 -26.3125 10.4375 C-27.8515625 11.69921875 -27.8515625 11.69921875 -29.9375 13.125 C-36.44181691 17.85959111 -40.5666572 23.37802703 -44.3125 30.4375 C-44.9725 30.4375 -45.6325 30.4375 -46.3125 30.4375 C-46.456875 31.345 -46.60125 32.2525 -46.75 33.1875 C-47.50677681 37.55998823 -48.60348154 41.3358557 -50.3125 45.4375 C-50.9725 45.1075 -51.6325 44.7775 -52.3125 44.4375 C-49.88922505 29.8978503 -42.04277232 17.57975279 -30.0625 9.01171875 C-20.39940789 2.77856853 -11.48632544 -0.13455532 0 0 Z " fill="#286DE3" transform="translate(581.3125,291.5625)"/>
<path d="M0 0 C0.66 0 1.32 0 2 0 C1.979375 0.94875 1.95875 1.8975 1.9375 2.875 C1.77448174 5.90666283 1.77448174 5.90666283 3 8 C3.0972886 10.12318064 3.12977619 12.24959691 3.125 14.375 C3.12886719 16.08816406 3.12886719 16.08816406 3.1328125 17.8359375 C3.02300724 20.45188639 2.70524884 22.5092402 2 25 C2 25.804375 2 26.60875 2 27.4375 C2 30.14086603 1.61234989 32.36689547 1 35 C0.85433594 35.63292969 0.70867188 36.26585937 0.55859375 36.91796875 C-0.90569022 43.06334952 -3.17439392 48.34878783 -6 54 C-8.17387 58.32784977 -8.17387 58.32784977 -9 63 C-10.485 63.495 -10.485 63.495 -12 64 C-13.03090273 65.64773096 -14.02616054 67.31791365 -15 69 C-16.44338401 70.67730259 -17.9246356 72.32258741 -19.4375 73.9375 C-21.99167766 76.70659229 -24.36380032 79.33545332 -26.3125 82.5625 C-28 85 -28 85 -30.25 85.875 C-30.8275 85.91625 -31.405 85.9575 -32 86 C-30.40099186 82.10755733 -27.85139456 79.61676235 -24.9375 76.625 C-7.730042 58.35521297 -1.29510483 36.79244923 -0.4375 12.0625 C-0.39431641 10.90169922 -0.35113281 9.74089844 -0.30664062 8.54492188 C-0.20115158 5.69671768 -0.09903445 2.84843471 0 0 Z " fill="#0CA6D8" transform="translate(745,585)"/>
<path d="M0 0 C1.89213369 2.38573379 3.02391783 4.07175348 4 7 C4.66 7.33 5.32 7.66 6 8 C6 9.32 6 10.64 6 12 C6.598125 12.226875 7.19625 12.45375 7.8125 12.6875 C10 14 10 14 11.36328125 16.32421875 C13.09410971 19.15385478 14.88079922 20.95427918 17.375 23.125 C18.12523437 23.78757812 18.87546875 24.45015625 19.6484375 25.1328125 C22.01797411 27.0142718 24.30515961 28.62103485 27 30 C27.66 29.67 28.32 29.34 29 29 C29 29.99 29 30.98 29 32 C30.051875 32.144375 31.10375 32.28875 32.1875 32.4375 C35.15460549 32.87526966 38.06794366 33.37804866 41 34 C41 34.66 41 35.32 41 36 C44.29158865 36.05905417 47.58303756 36.09394375 50.875 36.125 C51.7928125 36.14175781 52.710625 36.15851562 53.65625 36.17578125 C59.31697697 36.21564552 64.4870064 35.69925449 70.00830078 34.43310547 C72 34 72 34 74 34 C74.495 33.01 74.495 33.01 75 32 C76.32 32 77.64 32 79 32 C79.33 31.34 79.66 30.68 80 30 C82.24656829 28.40656936 84.5287416 27.25730691 87 26 C87.66 26.33 88.32 26.66 89 27 C78.47231082 36.47492026 64.01603527 39.77850782 50.09765625 39.34765625 C32.0552401 37.32271925 17.76014643 28.8161183 6.31640625 14.89453125 C3.24157571 10.46933002 0 5.47326591 0 0 Z " fill="#1894DD" transform="translate(384,692)"/>
<path d="M0 0 C3.95133778 2.8737002 6.94514979 6.14876093 10.09375 9.8359375 C13.22647751 13.39235357 16.61542277 16.68544851 20 20 C20.99 20.99 20.99 20.99 22 22 C20.515 22.495 20.515 22.495 19 23 C18.57589844 22.49210938 18.15179687 21.98421875 17.71484375 21.4609375 C14.24061048 17.38348571 10.71110149 13.72722555 6.578125 10.3203125 C4.59656406 8.66247191 2.78976522 6.86135583 1 5 C-2.16890978 7.30466166 -4.73514578 9.77203743 -7.25 12.75 C-14.17104935 20.77483739 -21.48842439 26.34844864 -31 31 C-32.00289063 31.51175781 -33.00578125 32.02351562 -34.0390625 32.55078125 C-39.67248098 35.30803489 -39.67248098 35.30803489 -42 36 C-42.99 35.34 -43.98 34.68 -45 34 C-43.83984375 33.52691406 -42.6796875 33.05382812 -41.484375 32.56640625 C-24.56693909 25.48359134 -10.2094887 15.65454933 0 0 Z " fill="#1196DC" transform="translate(511,723)"/>
<path d="M0 0 C-1.33926124 4.01778372 -3.49134469 4.78023848 -7 7 C-7.66 7.66 -8.32 8.32 -9 9 C-10.65422277 9.69697148 -12.32355807 10.35831107 -14 11 C-16.08731284 11.97065455 -18.17039443 12.95044083 -20.25 13.9375 C-24.18607041 15.79396858 -27.91952355 17.33442421 -32.125 18.4375 C-35.67353749 19.54885515 -35.8912474 19.82327702 -38 23.25 C-38.9565157 26.83693386 -39.49596582 30.32775096 -40 34 C-41.66666667 35.66666667 -43.33333333 37.33333333 -45 39 C-42.05190469 20.63757778 -42.05190469 20.63757778 -37.96875 17.37890625 C-35.33892672 16.35003058 -32.7444889 15.66398925 -30 15 C-20.35463882 11.70529742 -11.86674314 7.59683989 -3.81640625 1.2890625 C-2 0 -2 0 0 0 Z " fill="#0CA4D9" transform="translate(712,671)"/>
<path d="M0 0 C0.33 0 0.66 0 1 0 C1.144375 1.11375 1.28875 2.2275 1.4375 3.375 C1.78372035 6.82142047 1.78372035 6.82142047 3 9 C3.08949417 10.45037107 3.1175844 11.90478629 3.11352539 13.35791016 C3.11344986 14.25869293 3.11337433 15.15947571 3.11329651 16.08755493 C3.10813522 17.06155243 3.10297394 18.03554993 3.09765625 19.0390625 C3.0962413 20.03505463 3.09482635 21.03104675 3.09336853 22.05722046 C3.08775936 25.24651053 3.0752053 28.43573106 3.0625 31.625 C3.05748618 33.78385315 3.05292307 35.94270741 3.04882812 38.1015625 C3.03778695 43.4010655 3.02103988 48.70052778 3 54 C2.34 54 1.68 54 1 54 C0.24096926 46.81639882 -0.13982973 39.74115315 -0.09765625 32.51953125 C-0.0962413 31.58066574 -0.09482635 30.64180023 -0.09336853 29.67448425 C-0.08783898 26.72045496 -0.07530045 23.76650579 -0.0625 20.8125 C-0.05747587 18.79101673 -0.05291458 16.76953226 -0.04882812 14.74804688 C-0.03789277 9.8320011 -0.02067824 4.91601406 0 0 Z " fill="#2175E1" transform="translate(528,338)"/>
<path d="M0 0 C1.32 0.33 2.64 0.66 4 1 C-11.37768173 13.29423912 -33.26076423 22.527446 -53 24 C-55.29296875 23.5390625 -55.29296875 23.5390625 -57 23 C-57 22.34 -57 21.68 -57 21 C-55.783125 21.04125 -54.56625 21.0825 -53.3125 21.125 C-49.70507688 21.13131773 -47.33104408 20.41569373 -44 19 C-42.13436279 18.80361714 -40.26865654 18.60782399 -38.40234375 18.41796875 C-33.44455802 17.55539465 -28.72579123 15.69340852 -24 14 C-24 13.67 -24 13.34 -24 13 C-23.21753906 12.80664062 -22.43507813 12.61328125 -21.62890625 12.4140625 C-20.61699219 12.15367187 -19.60507812 11.89328125 -18.5625 11.625 C-17.55316406 11.36976563 -16.54382813 11.11453125 -15.50390625 10.8515625 C-12.84429676 10.27426046 -12.84429676 10.27426046 -12 8 C-11.01 8 -10.02 8 -9 8 C-8.67 7.01 -8.34 6.02 -8 5 C-7.05125 4.9175 -6.1025 4.835 -5.125 4.75 C-1.89538209 4.34925077 -1.89538209 4.34925077 -0.625 1.9375 C-0.41875 1.298125 -0.2125 0.65875 0 0 Z " fill="#0CBAD4" transform="translate(855,879)"/>
<path d="M0 0 C-3.05599259 1.80688508 -6.07282534 2.50277778 -9.53393555 3.19140625 C-20.88962153 5.47773414 -31.77113334 9.65993044 -41.36328125 16.25 C-44 18 -44 18 -46 18 C-45 15 -45 15 -42.0625 13.3125 C-39 12 -39 12 -37 12 C-37 11.34 -37 10.68 -37 10 C-29.71428571 5.42857143 -29.71428571 5.42857143 -25 6 C-25 5.34 -25 4.68 -25 4 C-23.39777828 3.54719821 -21.79522163 3.09556179 -20.19140625 2.6484375 C-18.64595941 2.1911395 -17.11254026 1.69219387 -15.58984375 1.1640625 C-9.86486714 -0.76490953 -5.93517062 -1.20901624 0 0 Z " fill="#3353E3" transform="translate(434,261)"/>
<path d="M0 0 C3.97412109 4.70605469 3.97412109 4.70605469 4.20703125 7.3515625 C4.07683594 8.10179687 3.94664062 8.85203125 3.8125 9.625 C3.69519531 10.38039063 3.57789063 11.13578125 3.45703125 11.9140625 C3 14 3 14 2 17 C2.185625 17.66 2.37125 18.32 2.5625 19 C2.706875 19.66 2.85125 20.32 3 21 C2.34 21.99 1.68 22.98 1 24 C1.33 24.66 1.66 25.32 2 26 C2.061875 26.78375 2.12375 27.5675 2.1875 28.375 C3.35029052 32.13170783 5.75422628 32.92270482 9 35 C10.875 37.75 10.875 37.75 12 40 C9 40 9 40 6.6875 37.875 C5.800625 36.92625 4.91375 35.9775 4 35 C2.94167969 34.2575 1.88335938 33.515 0.79296875 32.75 C-1.58337783 30.3813273 -1.98204681 29.1935168 -2.29711914 25.79736328 C-2.14099448 21.88373603 -1.80221313 18.01572436 -1.375 14.125 C-1.24834839 12.75547828 -1.12462051 11.38568283 -1.00390625 10.015625 C-0.69791597 6.67326961 -0.362415 3.33662991 0 0 Z " fill="#2395DF" transform="translate(731,397)"/>
<path d="M0 0 C10.36682572 4.34441255 14.92870076 17.31634708 19 27 C19.73666968 28.87206485 20.46699965 30.74665278 21.1875 32.625 C22.60235659 36.29995219 24.2830314 39.08896222 27 42 C22.47578857 40.83663135 20.483899 38.67101246 17.9921875 34.91796875 C16.5002591 32.03396543 16.33198243 29.20916344 16 26 C15.5855033 24.36326944 15.12511939 22.73762985 14.625 21.125 C14.39039063 20.36445313 14.15578125 19.60390625 13.9140625 18.8203125 C13.08555502 16.63635564 13.08555502 16.63635564 10 16 C8.98470459 13.67328135 7.98511802 11.3396553 7 9 C6.01 8.34 5.02 7.68 4 7 C2.51680959 4.7181686 1.21630888 2.43261776 0 0 Z " fill="#1D71E0" transform="translate(616,305)"/>
<path d="M0 0 C6.35212888 5.38550058 6.35212888 5.38550058 9.19921875 8.0859375 C20.15255427 18.40560898 31.90386297 24.96566534 46 30 C42.63047634 30.96272105 39.5111143 31.74565902 36.2109375 30.1171875 C35.60507812 29.70726562 34.99921875 29.29734375 34.375 28.875 C31.31900414 26.85656859 28.23282995 24.95915667 25.0625 23.125 C20.71910357 20.54443267 16.80984854 17.62406785 12.91015625 14.41796875 C10.95295301 12.81123396 10.95295301 12.81123396 8 12 C6.98648336 10.34151823 5.98879205 8.67334039 5 7 C4.113125 6.113125 3.22625 5.22625 2.3125 4.3125 C1.549375 3.549375 0.78625 2.78625 0 2 C0 1.34 0 0.68 0 0 Z " fill="#1187DE" transform="translate(368,727)"/>
<path d="M0 0 C0.33 0 0.66 0 1 0 C1.73551061 19.53912224 0.14813517 38.00063584 -8 56 C-8.33 56 -8.66 56 -9 56 C-8.62651454 51.74226578 -8.22981769 48.14744555 -6.4375 44.25 C-4.73032932 40.98259598 -4.73032932 40.98259598 -5 37 C-4.34 37 -3.68 37 -3 37 C-2.12967026 29.17125722 -1.6967302 21.37227155 -1.39453125 13.50390625 C-1.20061173 8.92339334 -0.89611339 4.51043741 0 0 Z " fill="#0BBAD2" transform="translate(905,776)"/>
<path d="M0 0 C0.66 0 1.32 0 2 0 C0.84384744 7.22595351 -4.26456316 12.77754887 -9 18 C-10.14662109 19.28390625 -10.14662109 19.28390625 -11.31640625 20.59375 C-17.48373288 27.48373288 -17.48373288 27.48373288 -20 30 C-20.66 29.34 -21.32 28.68 -22 28 C-21.19949219 27.26910156 -21.19949219 27.26910156 -20.3828125 26.5234375 C-12.84239573 19.34830043 -6.49199101 11.13147718 -1.3359375 2.078125 C-0.89507813 1.39234375 -0.45421875 0.7065625 0 0 Z " fill="#0CA6D9" transform="translate(665,711)"/>
<path d="M0 0 C2.31 0.33 4.62 0.66 7 1 C7 1.66 7 2.32 7 3 C7.5775 3.12375 8.155 3.2475 8.75 3.375 C11.02335767 4.00648824 12.9253529 4.88858191 15 6 C15 6.66 15 7.32 15 8 C15.84884766 8.38671875 15.84884766 8.38671875 16.71484375 8.78125 C19.24101463 10.12854114 21.32644367 11.71418175 23.5625 13.5 C26.00468505 15.44386398 28.39977272 17.26651515 31 19 C31 19.99 31 20.98 31 22 C31.66 22 32.32 22 33 22 C33.66 23.65 34.32 25.3 35 27 C31.20239666 23.83533055 27.64251532 20.65828586 24.25 17.0625 C17.38020907 10.09969449 8.5566499 5.58467415 0 1 C0 0.67 0 0.34 0 0 Z " fill="#2E63E3" transform="translate(473,266)"/>
<path d="M0 0 C1.89213369 2.38573379 3.02391783 4.07175348 4 7 C4.66 7.33 5.32 7.66 6 8 C6 9.32 6 10.64 6 12 C6.598125 12.226875 7.19625 12.45375 7.8125 12.6875 C10 14 10 14 11.36328125 16.32421875 C13.09410971 19.15385478 14.88079922 20.95427918 17.375 23.125 C18.12523437 23.78757812 18.87546875 24.45015625 19.6484375 25.1328125 C22.01797411 27.0142718 24.30515961 28.62103485 27 30 C27.66 29.67 28.32 29.34 29 29 C29 29.99 29 30.98 29 32 C29.66 32.33 30.32 32.66 31 33 C21.27547011 31.62063406 13.14446165 23.19980812 7 16 C3.40488704 11.00007399 0.33191088 6.30630665 0 0 Z " fill="#1287DD" transform="translate(384,692)"/>
<path d="M0 0 C15.13080483 -0.61134565 27.57367323 0.36718855 40 10 C39.34 10.33 38.68 10.66 38 11 C35.09331125 9.61640107 32.29668944 8.11749405 29.49414062 6.53710938 C25.08881943 4.18539656 21.92894805 3.84805955 17 4 C16.34 3.34 15.68 2.68 15 2 C12.43083343 1.69400937 9.95241616 1.48912913 7.375 1.375 C6.66859375 1.33632813 5.9621875 1.29765625 5.234375 1.2578125 C3.49001476 1.16352276 1.74504309 1.08067109 0 1 C0 0.67 0 0.34 0 0 Z " fill="#206DE2" transform="translate(574,292)"/>
<path d="M0 0 C0.66 0.99 1.32 1.98 2 3 C1.53851563 3.55429688 1.07703125 4.10859375 0.6015625 4.6796875 C-3.56203723 10.71182955 -4.30769167 18.74357788 -4.69140625 25.90625 C-5 28 -5 28 -7 31 C-8.37581518 25.53179188 -7.48765097 21.34163719 -6.1875 16 C-6.00896484 15.21882812 -5.83042969 14.43765625 -5.64648438 13.6328125 C-4.64764307 9.34897326 -3.61978572 5.09748167 -2 1 C-1.34 0.67 -0.68 0.34 0 0 Z " fill="#7E2FE5" transform="translate(126,197)"/>
<path d="M0 0 C14.85 0 29.7 0 45 0 C41.7994681 2.13368793 41.05955606 2.23623442 37.40234375 2.16015625 C36.51869141 2.14919922 35.63503906 2.13824219 34.72460938 2.12695312 C33.80486328 2.10568359 32.88511719 2.08441406 31.9375 2.0625 C30.1133592 2.02813029 28.28913262 1.99797509 26.46484375 1.97265625 C25.656521 1.95468994 24.84819824 1.93672363 24.01538086 1.91821289 C21.92831102 1.86477012 21.92831102 1.86477012 20 3 C18.55731833 2.88662619 17.11905722 2.71172611 15.6875 2.5 C12.91268886 2.14095894 11.0736076 1.98459376 8.3125 2.5625 C5.12477521 3.16558307 2.96551923 2.17241458 0 1 C0 0.67 0 0.34 0 0 Z " fill="#5F21E5" transform="translate(286,120)"/>
<path d="M0 0 C1.01900391 0.19493042 1.01900391 0.19493042 2.05859375 0.39379883 C5.12315568 1.04807966 6.80465653 1.42965653 9.0625 3.6875 C4.69161961 4.92454162 1.57328679 4.34056615 -2.8125 3.3125 C-10.51557885 1.60209815 -18.05877063 1.01158958 -25.9375 0.6875 C-25.9375 0.3575 -25.9375 0.0275 -25.9375 -0.3125 C-17.10216926 -1.22008967 -8.76931182 -1.68772849 0 0 Z " fill="#2F57E3" transform="translate(460.9375,260.3125)"/>
<path d="M0 0 C0 3.72922687 -0.74044861 4.1727942 -3.3125 6.75 C-9.91159514 13.10338415 -19.44661805 20.58169902 -28.9375 21.1875 C-29.9584375 21.0946875 -29.9584375 21.0946875 -31 21 C-30.360625 20.87625 -29.72125 20.7525 -29.0625 20.625 C-28.381875 20.41875 -27.70125 20.2125 -27 20 C-26.67 19.34 -26.34 18.68 -26 18 C-24.31154722 17.27164782 -22.62066447 16.54802895 -20.9140625 15.86328125 C-18.06135615 14.57665247 -15.58857259 12.74578152 -13 11 C-12.34 11 -11.68 11 -11 11 C-11 10.34 -11 9.68 -11 9 C-10.01 8.67 -9.02 8.34 -8 8 C-6.29115995 6.37660195 -4.62553283 4.70680947 -3 3 C-2 2 -1 1 0 0 Z " fill="#0EA1D9" transform="translate(699,638)"/>
<path d="M0 0 C0 0.66 0 1.32 0 2 C-1.08667969 2.56267578 -1.08667969 2.56267578 -2.1953125 3.13671875 C-11.4032806 7.5763345 -11.4032806 7.5763345 -18 15 C-20.4375 16.6875 -20.4375 16.6875 -23 18 C-23.66 17.67 -24.32 17.34 -25 17 C-19.22362841 10.55195729 -9.34534196 0 0 0 Z " fill="#3159E3" transform="translate(359,353)"/>
<path d="M0 0 C1.39025391 0.01353516 1.39025391 0.01353516 2.80859375 0.02734375 C5.08100077 0.05077063 7.3528618 0.08357252 9.625 0.125 C9.625 0.455 9.625 0.785 9.625 1.125 C8.42230469 1.14626953 8.42230469 1.14626953 7.1953125 1.16796875 C-1.1833747 1.51945563 -8.51566762 3.01914329 -16.50732422 5.48510742 C-22.18991334 7.21754333 -22.18991334 7.21754333 -24.375 6.125 C-23.16943396 5.49467867 -21.96036811 4.8710503 -20.75 4.25 C-20.07710938 3.90195312 -19.40421875 3.55390625 -18.7109375 3.1953125 C-12.28063492 0.24898657 -6.97484965 -0.12934814 0 0 Z " fill="#2B58E3" transform="translate(440.375,291.875)"/>
<path d="M0 0 C0.33 0.66 0.66 1.32 1 2 C0.17779031 3.94938444 -0.73580997 5.86044594 -1.6875 7.75 C-4.63194266 13.85699219 -6.44944602 19.68994057 -8.04296875 26.296875 C-8.35878906 27.18890625 -8.67460937 28.0809375 -9 29 C-9.99 29.33 -10.98 29.66 -12 30 C-12 27.69 -12 25.38 -12 23 C-11.34 22.67 -10.68 22.34 -10 22 C-9.26782603 19.69106878 -9.26782603 19.69106878 -8.6875 16.9375 C-7.31155189 11.53900969 -5.2168664 7.50148961 -2 3 C-1.34 2.01 -0.68 1.02 0 0 Z " fill="#2B57E2" transform="translate(268,454)"/>
<path d="M0 0 C0.33 0 0.66 0 1 0 C1.04241723 2.33294775 1.04092937 4.66702567 1 7 C0.67 7.33 0.34 7.66 0 8 C-0.08713831 9.70772358 -0.10700007 11.41898649 -0.09765625 13.12890625 C-0.09443359 14.16337891 -0.09121094 15.19785156 -0.08789062 16.26367188 C-0.07951172 17.35228516 -0.07113281 18.44089844 -0.0625 19.5625 C-0.05798828 20.65498047 -0.05347656 21.74746094 -0.04882812 22.87304688 C-0.03699826 25.58208495 -0.02051543 28.29101599 0 31 C-3.61271562 27.38728438 -3.16016639 23.30598295 -3.1875 18.375 C-3.09167981 3.09167981 -3.09167981 3.09167981 0 0 Z " fill="#3360E3" transform="translate(325,387)"/>
<path d="M0 0 C-2.45831067 2.45831067 -4.53677483 3.02693473 -7.8125 4.1875 C-14.94552808 6.84848486 -21.37140705 10.26953619 -28 14 C-28.99 14.495 -28.99 14.495 -30 15 C-29.67 14.01 -29.34 13.02 -29 12 C-28.34 11.67 -27.68 11.34 -27 11 C-26.34 10.01 -25.68 9.02 -25 8 C-24.01 8.33 -23.02 8.66 -22 9 C-22 8.34 -22 7.68 -22 7 C-21.03900391 6.61908203 -21.03900391 6.61908203 -20.05859375 6.23046875 C-19.19363281 5.88628906 -18.32867187 5.54210937 -17.4375 5.1875 C-16.52484375 4.82527344 -15.6121875 4.46304687 -14.671875 4.08984375 C-12.47892727 3.19535191 -10.33615223 2.24351397 -8.1875 1.25 C-5.14892147 0.05840058 -3.21533191 -0.2923029 0 0 Z " fill="#2E4DE2" transform="translate(358,320)"/>
<path d="M0 0 C3.95133778 2.8737002 6.94514979 6.14876093 10.09375 9.8359375 C13.22647751 13.39235357 16.61542277 16.68544851 20 20 C20.66 20.66 21.32 21.32 22 22 C21.01 22.33 20.02 22.66 19 23 C18.57589844 22.49210938 18.15179687 21.98421875 17.71484375 21.4609375 C14.23869986 17.38124336 10.70870745 13.72176712 6.5703125 10.31640625 C4.59436236 8.65995053 2.82204443 6.82204443 1 5 C0.34 4.67 -0.32 4.34 -1 4 C-0.67 2.68 -0.34 1.36 0 0 Z " fill="#1D9DDC" transform="translate(511,723)"/>
<path d="M0 0 C0.66 0 1.32 0 2 0 C1.85636473 1.37523135 1.70996483 2.75017402 1.5625 4.125 C1.48128906 4.89070313 1.40007812 5.65640625 1.31640625 6.4453125 C1 9 1 9 0.46875 11.5625 C-0.22706022 16.66510829 -0.10366699 21.73229256 -0.0625 26.875 C-0.05798828 27.94492187 -0.05347656 29.01484375 -0.04882812 30.1171875 C-0.03709749 32.74484986 -0.02068228 35.37239538 0 38 C-0.33 36.68 -0.66 35.36 -1 34 C-1.66 34 -2.32 34 -3 34 C-2.88859815 30.20780871 -2.75834624 26.41647806 -2.625 22.625 C-2.5940625 21.56410156 -2.563125 20.50320313 -2.53125 19.41015625 C-2.28623709 12.75397212 -1.54467116 6.48181048 0 0 Z " fill="#2B4CE2" transform="translate(293,380)"/>
<path d="M0 0 C0.825 0.13277344 1.65 0.26554688 2.5 0.40234375 C11.66664289 1.80393982 20.7448436 2.54325202 30 3 C23.08499418 7.17227514 13.7285643 5.38729326 6.25 3.625 C3.265625 2.8515625 3.265625 2.8515625 1 2 C0.67 1.34 0.34 0.68 0 0 Z " fill="#1BA4DA" transform="translate(565,726)"/>
<path d="M0 0 C0.66 0 1.32 0 2 0 C1.979375 0.94875 1.95875 1.8975 1.9375 2.875 C1.77448174 5.90666283 1.77448174 5.90666283 3 8 C3.0972886 10.12318064 3.12977619 12.24959691 3.125 14.375 C3.12757813 15.51710938 3.13015625 16.65921875 3.1328125 17.8359375 C2.94027114 22.4229522 2.08002534 24.83994931 0 29 C0 19.43 0 9.86 0 0 Z " fill="#0BA4D9" transform="translate(745,585)"/>
<path d="M0 0 C0.33 0 0.66 0 1 0 C0.88351232 5.82438396 -0.8429604 10.26423714 -3.4375 15.4375 C-3.75017822 16.06479004 -4.06285645 16.69208008 -4.38500977 17.33837891 C-6.73020126 21.86510063 -6.73020126 21.86510063 -9 23 C-8.690625 22.34 -8.38125 21.68 -8.0625 21 C-6.75039745 17.29523985 -6.39735865 13.90736009 -6 10 C-4.68 9.67 -3.36 9.34 -2 9 C-1.855625 8.071875 -1.71125 7.14375 -1.5625 6.1875 C-1 3 -1 3 0 0 Z " fill="#0C9ADB" transform="translate(734,518)"/>
<path d="M0 0 C0 4.08524905 -1.92633083 6.84332945 -3.875 10.3125 C-6.38747678 14.80033397 -8.53669586 19.03246753 -10 24 C-10.99 24 -11.98 24 -13 24 C-13 23.34 -13 22.68 -13 22 C-12.34 22 -11.68 22 -11 22 C-11 20.35 -11 18.7 -11 17 C-10.34 17 -9.68 17 -9 17 C-8.67 15.02 -8.34 13.04 -8 11 C-7.34 11 -6.68 11 -6 11 C-5.7834375 9.824375 -5.7834375 9.824375 -5.5625 8.625 C-5 6 -5 6 -4 4 C-3.34 4 -2.68 4 -2 4 C-2 3.01 -2 2.02 -2 1 C-1.34 0.67 -0.68 0.34 0 0 Z " fill="#3955E3" transform="translate(307,354)"/>
<path d="M0 0 C1.32 0.33 2.64 0.66 4 1 C4.0825 1.556875 4.165 2.11375 4.25 2.6875 C4.91150209 5.1911739 4.91150209 5.1911739 7 7.5 C8.870656 9.83832 9.57075847 11.10261968 10 14 C10.66 14 11.32 14 12 14 C13.5625 16.8125 13.5625 16.8125 15 20 C14.67 20.99 14.34 21.98 14 23 C10.78722471 18.92788055 8.36287522 14.47882393 5.81640625 9.97265625 C4.05711874 6.94851138 4.05711874 6.94851138 1.77734375 4.24609375 C0 2 0 2 0 0 Z " fill="#0C90DA" transform="translate(744,439)"/>
<path d="M0 0 C0.33 0.66 0.66 1.32 1 2 C0.28735352 3.97119141 0.28735352 3.97119141 -0.87109375 6.3515625 C-1.48500977 7.62773437 -1.48500977 7.62773437 -2.11132812 8.9296875 C-2.54896484 9.81914062 -2.98660156 10.70859375 -3.4375 11.625 C-3.87126953 12.5221875 -4.30503906 13.419375 -4.75195312 14.34375 C-5.82762755 16.56602245 -6.91054931 18.78445719 -8 21 C-8.99 21 -9.98 21 -11 21 C-9.125 15.25 -9.125 15.25 -8 13 C-7.34 13 -6.68 13 -6 13 C-5.8453125 11.700625 -5.8453125 11.700625 -5.6875 10.375 C-4.95978241 6.80256818 -3.82776592 4.14375739 -2 1 C-1.34 0.67 -0.68 0.34 0 0 Z " fill="#3555E2" transform="translate(370,298)"/>
<path d="M0 0 C0.33 0 0.66 0 1 0 C0.53507548 6.26943664 -0.97241942 10.8299267 -3.875 16.375 C-4.22691406 17.08527344 -4.57882812 17.79554688 -4.94140625 18.52734375 C-6.67588551 21.92537561 -7.77404853 23.84936569 -11 26 C-9.30839979 21.58919199 -7.21961391 17.48123108 -5.0234375 13.3046875 C-3.7970745 10.96331496 -3.7970745 10.96331496 -4 8 C-3.34 7.67 -2.68 7.34 -2 7 C-1.26924352 4.6859378 -0.59861742 2.35171131 0 0 Z " fill="#099FD7" transform="translate(712,611)"/>
<path d="M0 0 C1.90207137 2.23286639 2.94323979 3.54591833 3.3125 6.5 C4.32914246 10.19688168 6.84864487 10.98313272 10 13 C11.875 15.75 11.875 15.75 13 18 C10 18 10 18 7.6875 15.875 C6.800625 14.92625 5.91375 13.9775 5 13 C4.44183594 12.53078125 3.88367188 12.0615625 3.30859375 11.578125 C1.62374999 10.12392111 0.24423105 8.84857184 -1 7 C-0.875 3.125 -0.875 3.125 0 0 Z " fill="#1890DC" transform="translate(730,419)"/>
<path d="M0 0 C0.66 0.33 1.32 0.66 2 1 C0.16764986 7.7989834 -2.57824926 13.48204922 -7 19 C-7.66 19.33 -8.32 19.66 -9 20 C-8.73316406 19.47535156 -8.46632813 18.95070313 -8.19140625 18.41015625 C-6.72385613 15.44137453 -5.32897815 12.44268254 -3.9375 9.4375 C-3.14666016 7.73400391 -3.14666016 7.73400391 -2.33984375 5.99609375 C-0.95781944 3.0378072 -0.95781944 3.0378072 0 0 Z " fill="#13A4D9" transform="translate(639,689)"/>
<path d="M0 0 C2 3 2 3 3.375 6.375 C4.90450428 9.78697108 6.54683023 12.20846199 9 15 C4.43353624 13.82576646 2.45956616 11.59759307 -0.05859375 7.81640625 C-1.30018387 5.42080706 -1.46695544 3.64608084 -1 1 C-0.67 0.67 -0.34 0.34 0 0 Z " fill="#257AE2" transform="translate(634,332)"/>
<path d="M0 0 C2.89589652 -0.02706445 5.79153795 -0.04687029 8.6875 -0.0625 C9.91243164 -0.07506836 9.91243164 -0.07506836 11.16210938 -0.08789062 C15.24499084 -0.10442051 19.01651707 -0.03035098 23 1 C22.67 1.66 22.34 2.32 22 3 C19.5625 3.75 19.5625 3.75 17 4 C16.34 3.34 15.68 2.68 15 2 C12.43083343 1.69400937 9.95241616 1.48912913 7.375 1.375 C6.66859375 1.33632813 5.9621875 1.29765625 5.234375 1.2578125 C3.49001476 1.16352276 1.74504309 1.08067109 0 1 C0 0.67 0 0.34 0 0 Z " fill="#1663E1" transform="translate(574,292)"/>
<path d="M0 0 C1 3 1 3 -0.65234375 6.35546875 C-1.40377702 7.63889017 -2.16596501 8.91606134 -2.9375 10.1875 C-3.51661133 11.16879883 -3.51661133 11.16879883 -4.10742188 12.16992188 C-5.06253088 13.78535316 -6.03010066 15.39340525 -7 17 C-7.99 17 -8.98 17 -10 17 C-9.60167969 16.43152344 -9.20335937 15.86304688 -8.79296875 15.27734375 C-5.60659834 10.63346084 -3.07066268 6.23114783 -1 1 C-0.67 0.67 -0.34 0.34 0 0 Z " fill="#15BDD4" transform="translate(895,832)"/>
<path d="M0 0 C0.99 0.33 1.98 0.66 3 1 C2.85795259 2.58367747 2.71119847 4.16693318 2.5625 5.75 C2.48128906 6.63171875 2.40007813 7.5134375 2.31640625 8.421875 C2.03761535 10.69350452 1.61209423 12.79851823 1 15 C0.01 15 -0.98 15 -2 15 C-1.34 10.05 -0.68 5.1 0 0 Z " fill="#1BA4DB" transform="translate(766,514)"/>
<path d="M0 0 C0.66 0.33 1.32 0.66 2 1 C1.21625 1.78375 0.4325 2.5675 -0.375 3.375 C-3.78759075 7.3966367 -4.32434339 11.89727996 -5 17 C-7.48695328 13.26957008 -7.24549181 11.52989214 -6.69140625 7.23046875 C-5.52411904 3.46481339 -3.22434609 2.12669636 0 0 Z " fill="#0797D8" transform="translate(711,553)"/>
<path d="M0 0 C0.66 0.33 1.32 0.66 2 1 C-3.94 6.445 -3.94 6.445 -10 12 C-10.33 11.01 -10.66 10.02 -11 9 C-10.34 9 -9.68 9 -9 9 C-8.67 8.01 -8.34 7.02 -8 6 C-7.34 6 -6.68 6 -6 6 C-5.67 5.01 -5.34 4.02 -5 3 C-2.5625 1.25 -2.5625 1.25 0 0 Z " fill="#334FE3" transform="translate(325,335)"/>
<path d="M0 0 C1.00206597 2.70557813 1.05573121 3.83280636 0.125 6.625 C-0.56903771 8.09019073 -1.27495211 9.54990422 -2 11 C-2.99 10.67 -3.98 10.34 -5 10 C-4.55090939 8.51800098 -4.09043436 7.03944764 -3.625 5.5625 C-3.36976563 4.73878906 -3.11453125 3.91507812 -2.8515625 3.06640625 C-2 1 -2 1 0 0 Z " fill="#3862E2" transform="translate(391,332)"/>
<path d="M0 0 C0.66 0.33 1.32 0.66 2 1 C1.67 3.64 1.34 6.28 1 9 C0.34 9 -0.32 9 -1 9 C-1 11.31 -1 13.62 -1 16 C-1.33 16 -1.66 16 -2 16 C-2.2358396 10.22192976 -1.86783046 5.48675196 0 0 Z " fill="#2C64E3" transform="translate(289,481)"/>
<path d="M0 0 C0.99 0.33 1.98 0.66 3 1 C0.20375042 3.18697502 -2.63307872 4.99152813 -5.75 6.6875 C-6.94882812 7.34298828 -6.94882812 7.34298828 -8.171875 8.01171875 C-8.77515625 8.33785156 -9.3784375 8.66398437 -10 9 C-9.67 8.01 -9.34 7.02 -9 6 C-8.34 5.67 -7.68 5.34 -7 5 C-6.34 4.01 -5.68 3.02 -5 2 C-4.01 2.33 -3.02 2.66 -2 3 C-2 2.34 -2 1.68 -2 1 C-1.34 0.67 -0.68 0.34 0 0 Z " fill="#3854E3" transform="translate(338,326)"/>
<path d="M0 0 C-3.85675187 2.41046992 -7.53555468 2.71654315 -12 3 C-12.99 2.34 -13.98 1.68 -15 1 C-9.4584498 -0.96263236 -5.79141983 -1.01603857 0 0 Z " fill="#3D5CE4" transform="translate(434,261)"/>
<path d="M0 0 C0 2.85602507 -0.3622683 4.48384316 -1.3125 7.125 C-1.55613281 7.82882812 -1.79976563 8.53265625 -2.05078125 9.2578125 C-3 11 -3 11 -6 12 C-5.54300722 6.97307937 -3.00758252 3.85103739 0 0 Z " fill="#2C62E2" transform="translate(298,465)"/>
<path d="M0 0 C-1.95216435 1.95216435 -3.53199953 2.84826645 -6 4 C-6 4.99 -6 5.98 -6 7 C-6.66 7 -7.32 7 -8 7 C-7.75 4.125 -7.75 4.125 -7 1 C-4.1587258 -1.17831022 -3.46754708 -1.15584903 0 0 Z " fill="#1DA9DA" transform="translate(679,689)"/>
<path d="M0 0 C2.70931419 0.15481795 4.46584039 0.48172081 6.4453125 2.40234375 C7.67679642 3.89771708 8.8429837 5.4462924 10 7 C7.69 6.67 5.38 6.34 3 6 C3 5.01 3 4.02 3 3 C2.01 2.67 1.02 2.34 0 2 C0 1.34 0 0.68 0 0 Z " fill="#0F94DB" transform="translate(612,570)"/>
<path d="M0 0 C0 3 0 3 -1.53125 4.82421875 C-2.1809375 5.43910156 -2.830625 6.05398438 -3.5 6.6875 C-4.1496875 7.31011719 -4.799375 7.93273437 -5.46875 8.57421875 C-5.9740625 9.04472656 -6.479375 9.51523437 -7 10 C-7.66 9.67 -8.32 9.34 -9 9 C-8.360625 8.21625 -7.72125 7.4325 -7.0625 6.625 C-5.01857687 4.20460719 -5.01857687 4.20460719 -4 2 C-1.9375 0.875 -1.9375 0.875 0 0 Z " fill="#0797D9" transform="translate(723,542)"/>
<path d="M0 0 C0.66 0.33 1.32 0.66 2 1 C-1.3 4.3 -4.6 7.6 -8 11 C-8.33 10.34 -8.66 9.68 -9 9 C-8.06725891 7.87105124 -7.12859878 6.74699124 -6.1875 5.625 C-5.66542969 4.99851562 -5.14335938 4.37203125 -4.60546875 3.7265625 C-3 2 -3 2 0 0 Z " fill="#14BDD5" transform="translate(876,862)"/>
<path d="M0 0 C0.66 0 1.32 0 2 0 C0.44499019 3.81684226 -2.03595495 6.19195732 -5 9 C-5.66 8.67 -6.32 8.34 -7 8 C-7 7.01 -7 6.02 -7 5 C-6.01 5 -5.02 5 -4 5 C-2.64172029 3.35360035 -1.30745749 1.68704193 0 0 Z " fill="#0A90DB" transform="translate(481,708)"/>
<path d="M0 0 C0.33 0.66 0.66 1.32 1 2 C1.66 2 2.32 2 3 2 C3 3.32 3 4.64 3 6 C3.66 6 4.32 6 5 6 C5 6.66 5 7.32 5 8 C4.34 8 3.68 8 3 8 C2.67 8.66 2.34 9.32 2 10 C0.68373308 6.38026598 0 3.90432869 0 0 Z " fill="#1D73E1" transform="translate(122,814)"/>
<path d="M0 0 C0.99 0 1.98 0 3 0 C4.5625 2.8125 4.5625 2.8125 6 6 C5.67 6.99 5.34 7.98 5 9 C2.67527795 6.14693203 1.2491742 3.45925163 0 0 Z " fill="#199ADC" transform="translate(753,453)"/>
<path d="M0 0 C0.99 0.66 1.98 1.32 3 2 C1.71086513 2.67154933 0.41859796 3.33708859 -0.875 4 C-1.59429687 4.37125 -2.31359375 4.7425 -3.0546875 5.125 C-5 6 -5 6 -7 6 C-6.875 4.125 -6.875 4.125 -6 2 C-3.125 0.625 -3.125 0.625 0 0 Z " fill="#3D65E3" transform="translate(381,346)"/>
<path d="M0 0 C0.99 0 1.98 0 3 0 C3 0.66 3 1.32 3 2 C5.31 2.33 7.62 2.66 10 3 C10 3.33 10 3.66 10 4 C6.7 4 3.4 4 0 4 C-0.33 3.34 -0.66 2.68 -1 2 C-0.67 1.34 -0.34 0.68 0 0 Z " fill="#1C7DE0" transform="translate(360,658)"/>
<path d="M0 0 C1.485 0.99 1.485 0.99 3 2 C2.67 4.64 2.34 7.28 2 10 C1.01 10 0.02 10 -1 10 C-0.67 6.7 -0.34 3.4 0 0 Z " fill="#23AEDC" transform="translate(744,610)"/>
<path d="M0 0 C8.57142857 0.71428571 8.57142857 0.71428571 12 4 C10.56138706 3.91253716 9.12402492 3.80434652 7.6875 3.6875 C6.88699219 3.62949219 6.08648437 3.57148438 5.26171875 3.51171875 C2.63727666 2.91793306 1.69179328 2.04219706 0 0 Z " fill="#296AE3" transform="translate(359,454)"/>
<path d="M0 0 C3.82669043 3.42388092 5.72278474 6.00724943 7 11 C4.0444623 8.24829249 1.88436685 5.58029701 0 2 C0 1.34 0 0.68 0 0 Z " fill="#1296DA" transform="translate(649,560)"/>
<path d="M0 0 C0.7425 0.0825 1.485 0.165 2.25 0.25 C0.27579865 2.77259061 -0.71745642 3.2429808 -3.9375 3.9375 C-5.3296875 4.0921875 -5.3296875 4.0921875 -6.75 4.25 C-3.42692308 0.31153846 -3.42692308 0.31153846 0 0 Z " fill="#0EA3DA" transform="translate(610.75,722.75)"/>
<path d="M0 0 C1.32 0.66 2.64 1.32 4 2 C3.21625 2.598125 2.4325 3.19625 1.625 3.8125 C-1.14574323 5.91085249 -1.14574323 5.91085249 -3 9 C-3.66 8.67 -4.32 8.34 -5 8 C-4.360625 7.05125 -3.72125 6.1025 -3.0625 5.125 C-1.07379437 2.24712173 -1.07379437 2.24712173 0 0 Z " fill="#4371E4" transform="translate(306,455)"/>
<path d="M0 0 C-2 2 -2 2 -5 2.25 C-8 2 -8 2 -10 0 C-6.30458414 -0.95024979 -3.69541586 -0.95024979 0 0 Z " fill="#8435E5" transform="translate(220,122)"/>
<path d="M0 0 C0.33 0 0.66 0 1 0 C1.144375 1.11375 1.28875 2.2275 1.4375 3.375 C1.78372035 6.82142047 1.78372035 6.82142047 3 9 C2.72057545 10.67654729 2.39171753 12.34608154 2 14 C0.09391902 10.78817851 -0.22266247 8.46117397 -0.125 4.75 C-0.09792969 3.41195313 -0.09792969 3.41195313 -0.0703125 2.046875 C-0.04710937 1.37140625 -0.02390625 0.6959375 0 0 Z " fill="#367DE2" transform="translate(528,338)"/>
<path d="M0 0 C0.99 0.33 1.98 0.66 3 1 C1.02 3.31 -0.96 5.62 -3 8 C-3.33 7.34 -3.66 6.68 -4 6 C-1.68421053 1.68421053 -1.68421053 1.68421053 0 0 Z " fill="#2462E3" transform="translate(519,286)"/>
<path d="M0 0 C0.66 0.33 1.32 0.66 2 1 C-0.36292656 3.52588702 -1.66462511 4.88820837 -5 6 C-5.66 5.34 -6.32 4.68 -7 4 C-1.7265625 0.77734375 -1.7265625 0.77734375 0 0 Z " fill="#435DE4" transform="translate(404,267)"/>
<path d="M0 0 C0.99 0.33 1.98 0.66 3 1 C1.70700306 3.88437779 0.34058637 5.87219421 -2 8 C-1.34 5.36 -0.68 2.72 0 0 Z " fill="#0ABFD6" transform="translate(882,851)"/>
<path d="M0 0 C0.66 0.66 1.32 1.32 2 2 C1.625 4.625 1.625 4.625 1 7 C0.01 7.33 -0.98 7.66 -2 8 C-2 5.69 -2 3.38 -2 1 C-1.34 0.67 -0.68 0.34 0 0 Z " fill="#3A64E3" transform="translate(258,476)"/>
</svg>
